<mxfile host="app.diagrams.net" agent="Mozilla/5.0 (Windows NT 10.0; Win64; x64) AppleWebKit/537.36 (KHTML, like Gecko) Chrome/127.0.0.0 Safari/537.36 OPR/113.0.0.0" version="24.8.3">
  <diagram id="C5RBs43oDa-KdzZeNtuy" name="Page-1">
    <mxGraphModel dx="1345" dy="743" grid="1" gridSize="10" guides="1" tooltips="1" connect="1" arrows="1" fold="1" page="1" pageScale="1" pageWidth="827" pageHeight="1169" math="0" shadow="0">
      <root>
        <mxCell id="WIyWlLk6GJQsqaUBKTNV-0" />
        <mxCell id="WIyWlLk6GJQsqaUBKTNV-1" parent="WIyWlLk6GJQsqaUBKTNV-0" />
        <mxCell id="lytTWIRT8EyPjuGnmIkk-0" value="" style="edgeStyle=orthogonalEdgeStyle;rounded=0;orthogonalLoop=1;jettySize=auto;html=1;" edge="1" parent="WIyWlLk6GJQsqaUBKTNV-1" source="lytTWIRT8EyPjuGnmIkk-1" target="lytTWIRT8EyPjuGnmIkk-2">
          <mxGeometry relative="1" as="geometry" />
        </mxCell>
        <mxCell id="lytTWIRT8EyPjuGnmIkk-1" value="Початок" style="ellipse;whiteSpace=wrap;html=1;" vertex="1" parent="WIyWlLk6GJQsqaUBKTNV-1">
          <mxGeometry x="340" y="100" width="120" height="80" as="geometry" />
        </mxCell>
        <mxCell id="lytTWIRT8EyPjuGnmIkk-6" value="" style="edgeStyle=orthogonalEdgeStyle;rounded=0;orthogonalLoop=1;jettySize=auto;html=1;" edge="1" parent="WIyWlLk6GJQsqaUBKTNV-1" source="lytTWIRT8EyPjuGnmIkk-2" target="lytTWIRT8EyPjuGnmIkk-4">
          <mxGeometry relative="1" as="geometry" />
        </mxCell>
        <mxCell id="lytTWIRT8EyPjuGnmIkk-2" value="weather_status,&lt;div&gt;weather_status_lower,&lt;br&gt;&lt;/div&gt;&lt;div&gt;weather_options[3]&lt;/div&gt;&lt;div&gt;idx, n&lt;/div&gt;" style="shape=internalStorage;whiteSpace=wrap;html=1;backgroundOutline=1;" vertex="1" parent="WIyWlLk6GJQsqaUBKTNV-1">
          <mxGeometry x="310" y="220" width="180" height="120" as="geometry" />
        </mxCell>
        <mxCell id="lytTWIRT8EyPjuGnmIkk-3" value="" style="edgeStyle=orthogonalEdgeStyle;rounded=0;orthogonalLoop=1;jettySize=auto;html=1;" edge="1" parent="WIyWlLk6GJQsqaUBKTNV-1" source="lytTWIRT8EyPjuGnmIkk-4" target="lytTWIRT8EyPjuGnmIkk-5">
          <mxGeometry relative="1" as="geometry" />
        </mxCell>
        <mxCell id="lytTWIRT8EyPjuGnmIkk-4" value="&lt;p&gt;&lt;font style=&quot;font-size: 12px;&quot;&gt;Output: &lt;font face=&quot;Consolas, Courier New, monospace&quot;&gt;&lt;span style=&quot;white-space: pre;&quot;&gt;What&#39;s the weather outside?&lt;/span&gt;&lt;/font&gt;&lt;/font&gt;&lt;/p&gt;" style="shape=parallelogram;perimeter=parallelogramPerimeter;whiteSpace=wrap;html=1;fixedSize=1;" vertex="1" parent="WIyWlLk6GJQsqaUBKTNV-1">
          <mxGeometry x="261.75" y="380" width="276.5" height="60" as="geometry" />
        </mxCell>
        <mxCell id="lytTWIRT8EyPjuGnmIkk-11" value="" style="edgeStyle=orthogonalEdgeStyle;rounded=0;orthogonalLoop=1;jettySize=auto;html=1;" edge="1" parent="WIyWlLk6GJQsqaUBKTNV-1" source="lytTWIRT8EyPjuGnmIkk-5" target="lytTWIRT8EyPjuGnmIkk-7">
          <mxGeometry relative="1" as="geometry" />
        </mxCell>
        <mxCell id="lytTWIRT8EyPjuGnmIkk-5" value="&lt;p&gt;Input: weather_status&lt;/p&gt;" style="shape=parallelogram;perimeter=parallelogramPerimeter;whiteSpace=wrap;html=1;fixedSize=1;" vertex="1" parent="WIyWlLk6GJQsqaUBKTNV-1">
          <mxGeometry x="306.75" y="490" width="186.5" height="60" as="geometry" />
        </mxCell>
        <mxCell id="lytTWIRT8EyPjuGnmIkk-9" style="edgeStyle=orthogonalEdgeStyle;rounded=0;orthogonalLoop=1;jettySize=auto;html=1;exitX=1;exitY=0.5;exitDx=0;exitDy=0;entryX=0.5;entryY=0;entryDx=0;entryDy=0;" edge="1" parent="WIyWlLk6GJQsqaUBKTNV-1" source="lytTWIRT8EyPjuGnmIkk-16" target="lytTWIRT8EyPjuGnmIkk-8">
          <mxGeometry relative="1" as="geometry" />
        </mxCell>
        <mxCell id="lytTWIRT8EyPjuGnmIkk-14" style="edgeStyle=orthogonalEdgeStyle;rounded=0;orthogonalLoop=1;jettySize=auto;html=1;entryX=0.5;entryY=0;entryDx=0;entryDy=0;" edge="1" parent="WIyWlLk6GJQsqaUBKTNV-1" source="lytTWIRT8EyPjuGnmIkk-18" target="lytTWIRT8EyPjuGnmIkk-12">
          <mxGeometry relative="1" as="geometry" />
        </mxCell>
        <mxCell id="lytTWIRT8EyPjuGnmIkk-7" value="&lt;div style=&quot;line-height: 22px; white-space: pre;&quot;&gt;&lt;font face=&quot;Helvetica&quot;&gt;char ch : weather_status&lt;/font&gt;&lt;/div&gt;" style="shape=hexagon;perimeter=hexagonPerimeter2;whiteSpace=wrap;html=1;fixedSize=1;" vertex="1" parent="WIyWlLk6GJQsqaUBKTNV-1">
          <mxGeometry x="320" y="600" width="160" height="80" as="geometry" />
        </mxCell>
        <mxCell id="lytTWIRT8EyPjuGnmIkk-10" style="edgeStyle=orthogonalEdgeStyle;rounded=0;orthogonalLoop=1;jettySize=auto;html=1;exitX=0.5;exitY=1;exitDx=0;exitDy=0;entryX=0.625;entryY=1;entryDx=0;entryDy=0;" edge="1" parent="WIyWlLk6GJQsqaUBKTNV-1" source="lytTWIRT8EyPjuGnmIkk-8" target="lytTWIRT8EyPjuGnmIkk-7">
          <mxGeometry relative="1" as="geometry">
            <Array as="points">
              <mxPoint x="605" y="780" />
              <mxPoint x="420" y="780" />
            </Array>
          </mxGeometry>
        </mxCell>
        <mxCell id="lytTWIRT8EyPjuGnmIkk-8" value="&lt;div style=&quot;line-height: 22px; white-space: pre;&quot;&gt;&lt;font style=&quot;&quot; face=&quot;Helvetica&quot;&gt;weather_status_lower += tolower(ch)&lt;/font&gt;&lt;/div&gt;" style="rounded=1;whiteSpace=wrap;html=1;" vertex="1" parent="WIyWlLk6GJQsqaUBKTNV-1">
          <mxGeometry x="490" y="680" width="230" height="60" as="geometry" />
        </mxCell>
        <mxCell id="lytTWIRT8EyPjuGnmIkk-20" style="edgeStyle=orthogonalEdgeStyle;rounded=0;orthogonalLoop=1;jettySize=auto;html=1;exitX=0.5;exitY=1;exitDx=0;exitDy=0;entryX=0.5;entryY=0;entryDx=0;entryDy=0;" edge="1" parent="WIyWlLk6GJQsqaUBKTNV-1" source="lytTWIRT8EyPjuGnmIkk-24" target="lytTWIRT8EyPjuGnmIkk-19">
          <mxGeometry relative="1" as="geometry" />
        </mxCell>
        <mxCell id="lytTWIRT8EyPjuGnmIkk-22" style="edgeStyle=orthogonalEdgeStyle;rounded=0;orthogonalLoop=1;jettySize=auto;html=1;entryX=0.5;entryY=0;entryDx=0;entryDy=0;exitX=0.5;exitY=1;exitDx=0;exitDy=0;" edge="1" parent="WIyWlLk6GJQsqaUBKTNV-1" source="lytTWIRT8EyPjuGnmIkk-25" target="lytTWIRT8EyPjuGnmIkk-21">
          <mxGeometry relative="1" as="geometry" />
        </mxCell>
        <mxCell id="lytTWIRT8EyPjuGnmIkk-12" value="&lt;div style=&quot;line-height: 22px; white-space: pre; font-size: 10px;&quot;&gt;&lt;font face=&quot;Helvetica&quot;&gt;weather_status_lower == &quot;rainy&quot; || weather_status_lower == &quot;snowy&quot;&lt;/font&gt;&lt;/div&gt;" style="rhombus;whiteSpace=wrap;html=1;" vertex="1" parent="WIyWlLk6GJQsqaUBKTNV-1">
          <mxGeometry x="215" y="800" width="370" height="110" as="geometry" />
        </mxCell>
        <mxCell id="lytTWIRT8EyPjuGnmIkk-15" value="" style="edgeStyle=orthogonalEdgeStyle;rounded=0;orthogonalLoop=1;jettySize=auto;html=1;exitX=1;exitY=0.5;exitDx=0;exitDy=0;entryX=0;entryY=0.5;entryDx=0;entryDy=0;endArrow=none;endFill=0;" edge="1" parent="WIyWlLk6GJQsqaUBKTNV-1" source="lytTWIRT8EyPjuGnmIkk-7" target="lytTWIRT8EyPjuGnmIkk-16">
          <mxGeometry relative="1" as="geometry">
            <mxPoint x="480" y="640" as="sourcePoint" />
            <mxPoint x="605" y="680" as="targetPoint" />
          </mxGeometry>
        </mxCell>
        <mxCell id="lytTWIRT8EyPjuGnmIkk-16" value="Next" style="text;html=1;align=center;verticalAlign=middle;whiteSpace=wrap;rounded=0;" vertex="1" parent="WIyWlLk6GJQsqaUBKTNV-1">
          <mxGeometry x="510" y="625" width="60" height="30" as="geometry" />
        </mxCell>
        <mxCell id="lytTWIRT8EyPjuGnmIkk-17" value="" style="edgeStyle=orthogonalEdgeStyle;rounded=0;orthogonalLoop=1;jettySize=auto;html=1;entryX=0.5;entryY=0;entryDx=0;entryDy=0;endArrow=none;endFill=0;" edge="1" parent="WIyWlLk6GJQsqaUBKTNV-1" source="lytTWIRT8EyPjuGnmIkk-7" target="lytTWIRT8EyPjuGnmIkk-18">
          <mxGeometry relative="1" as="geometry">
            <mxPoint x="400" y="680" as="sourcePoint" />
            <mxPoint x="400" y="800" as="targetPoint" />
          </mxGeometry>
        </mxCell>
        <mxCell id="lytTWIRT8EyPjuGnmIkk-18" value="Done" style="text;html=1;align=center;verticalAlign=middle;whiteSpace=wrap;rounded=0;" vertex="1" parent="WIyWlLk6GJQsqaUBKTNV-1">
          <mxGeometry x="370" y="725" width="60" height="30" as="geometry" />
        </mxCell>
        <mxCell id="lytTWIRT8EyPjuGnmIkk-36" style="edgeStyle=orthogonalEdgeStyle;rounded=0;orthogonalLoop=1;jettySize=auto;html=1;entryX=0.5;entryY=0;entryDx=0;entryDy=0;" edge="1" parent="WIyWlLk6GJQsqaUBKTNV-1" source="lytTWIRT8EyPjuGnmIkk-19" target="lytTWIRT8EyPjuGnmIkk-29">
          <mxGeometry relative="1" as="geometry" />
        </mxCell>
        <mxCell id="lytTWIRT8EyPjuGnmIkk-19" value="&lt;p&gt;Output: Одягни куртку!&lt;/p&gt;" style="shape=parallelogram;perimeter=parallelogramPerimeter;whiteSpace=wrap;html=1;fixedSize=1;" vertex="1" parent="WIyWlLk6GJQsqaUBKTNV-1">
          <mxGeometry x="10" y="920" width="270" height="60" as="geometry" />
        </mxCell>
        <mxCell id="lytTWIRT8EyPjuGnmIkk-37" style="edgeStyle=orthogonalEdgeStyle;rounded=0;orthogonalLoop=1;jettySize=auto;html=1;entryX=0.5;entryY=0;entryDx=0;entryDy=0;" edge="1" parent="WIyWlLk6GJQsqaUBKTNV-1" source="lytTWIRT8EyPjuGnmIkk-21" target="lytTWIRT8EyPjuGnmIkk-29">
          <mxGeometry relative="1" as="geometry" />
        </mxCell>
        <mxCell id="lytTWIRT8EyPjuGnmIkk-21" value="&lt;p&gt;Output: Куртка тобі не потрібна&lt;/p&gt;" style="shape=parallelogram;perimeter=parallelogramPerimeter;whiteSpace=wrap;html=1;fixedSize=1;" vertex="1" parent="WIyWlLk6GJQsqaUBKTNV-1">
          <mxGeometry x="520" y="920" width="270" height="60" as="geometry" />
        </mxCell>
        <mxCell id="lytTWIRT8EyPjuGnmIkk-23" value="" style="edgeStyle=orthogonalEdgeStyle;rounded=0;orthogonalLoop=1;jettySize=auto;html=1;exitX=0;exitY=0.5;exitDx=0;exitDy=0;entryX=1;entryY=0.5;entryDx=0;entryDy=0;endArrow=none;endFill=0;" edge="1" parent="WIyWlLk6GJQsqaUBKTNV-1" source="lytTWIRT8EyPjuGnmIkk-12" target="lytTWIRT8EyPjuGnmIkk-24">
          <mxGeometry relative="1" as="geometry">
            <mxPoint x="215" y="855" as="sourcePoint" />
            <mxPoint x="145" y="920" as="targetPoint" />
          </mxGeometry>
        </mxCell>
        <mxCell id="lytTWIRT8EyPjuGnmIkk-24" value="True" style="text;html=1;align=center;verticalAlign=middle;whiteSpace=wrap;rounded=0;" vertex="1" parent="WIyWlLk6GJQsqaUBKTNV-1">
          <mxGeometry x="115" y="840" width="60" height="30" as="geometry" />
        </mxCell>
        <mxCell id="lytTWIRT8EyPjuGnmIkk-26" value="" style="edgeStyle=orthogonalEdgeStyle;rounded=0;orthogonalLoop=1;jettySize=auto;html=1;entryX=0;entryY=0.5;entryDx=0;entryDy=0;exitX=1;exitY=0.5;exitDx=0;exitDy=0;endArrow=none;endFill=0;" edge="1" parent="WIyWlLk6GJQsqaUBKTNV-1" source="lytTWIRT8EyPjuGnmIkk-12" target="lytTWIRT8EyPjuGnmIkk-25">
          <mxGeometry relative="1" as="geometry">
            <mxPoint x="585" y="855" as="sourcePoint" />
            <mxPoint x="655" y="920" as="targetPoint" />
          </mxGeometry>
        </mxCell>
        <mxCell id="lytTWIRT8EyPjuGnmIkk-25" value="False" style="text;html=1;align=center;verticalAlign=middle;whiteSpace=wrap;rounded=0;" vertex="1" parent="WIyWlLk6GJQsqaUBKTNV-1">
          <mxGeometry x="625" y="840" width="60" height="30" as="geometry" />
        </mxCell>
        <mxCell id="lytTWIRT8EyPjuGnmIkk-27" style="edgeStyle=orthogonalEdgeStyle;rounded=0;orthogonalLoop=1;jettySize=auto;html=1;exitX=0.5;exitY=1;exitDx=0;exitDy=0;entryX=0.5;entryY=0;entryDx=0;entryDy=0;" edge="1" parent="WIyWlLk6GJQsqaUBKTNV-1" source="lytTWIRT8EyPjuGnmIkk-33" target="lytTWIRT8EyPjuGnmIkk-30">
          <mxGeometry relative="1" as="geometry" />
        </mxCell>
        <mxCell id="lytTWIRT8EyPjuGnmIkk-28" style="edgeStyle=orthogonalEdgeStyle;rounded=0;orthogonalLoop=1;jettySize=auto;html=1;entryX=0.5;entryY=0;entryDx=0;entryDy=0;exitX=0.5;exitY=1;exitDx=0;exitDy=0;" edge="1" parent="WIyWlLk6GJQsqaUBKTNV-1" source="lytTWIRT8EyPjuGnmIkk-35" target="lytTWIRT8EyPjuGnmIkk-40">
          <mxGeometry relative="1" as="geometry">
            <mxPoint x="655" y="1160" as="targetPoint" />
          </mxGeometry>
        </mxCell>
        <mxCell id="lytTWIRT8EyPjuGnmIkk-29" value="&lt;div style=&quot;line-height: 22px; white-space: pre;&quot;&gt;&lt;div style=&quot;line-height: 22px;&quot;&gt;&lt;font face=&quot;Helvetica&quot;&gt;weather_status_lower == &quot;sunny&quot;&lt;/font&gt;&lt;/div&gt;&lt;/div&gt;" style="rhombus;whiteSpace=wrap;html=1;" vertex="1" parent="WIyWlLk6GJQsqaUBKTNV-1">
          <mxGeometry x="262.5" y="1040" width="275" height="110" as="geometry" />
        </mxCell>
        <mxCell id="lytTWIRT8EyPjuGnmIkk-83" style="edgeStyle=orthogonalEdgeStyle;rounded=0;orthogonalLoop=1;jettySize=auto;html=1;exitX=0.5;exitY=1;exitDx=0;exitDy=0;entryX=0.5;entryY=0;entryDx=0;entryDy=0;" edge="1" parent="WIyWlLk6GJQsqaUBKTNV-1" source="lytTWIRT8EyPjuGnmIkk-30" target="lytTWIRT8EyPjuGnmIkk-76">
          <mxGeometry relative="1" as="geometry" />
        </mxCell>
        <mxCell id="lytTWIRT8EyPjuGnmIkk-30" value="&lt;p&gt;Output: Чудовий день для пікніка!&lt;/p&gt;" style="shape=parallelogram;perimeter=parallelogramPerimeter;whiteSpace=wrap;html=1;fixedSize=1;" vertex="1" parent="WIyWlLk6GJQsqaUBKTNV-1">
          <mxGeometry x="10" y="1160" width="270" height="60" as="geometry" />
        </mxCell>
        <mxCell id="lytTWIRT8EyPjuGnmIkk-32" value="" style="edgeStyle=orthogonalEdgeStyle;rounded=0;orthogonalLoop=1;jettySize=auto;html=1;exitX=0;exitY=0.5;exitDx=0;exitDy=0;entryX=1;entryY=0.5;entryDx=0;entryDy=0;endArrow=none;endFill=0;" edge="1" parent="WIyWlLk6GJQsqaUBKTNV-1" source="lytTWIRT8EyPjuGnmIkk-29" target="lytTWIRT8EyPjuGnmIkk-33">
          <mxGeometry relative="1" as="geometry">
            <mxPoint x="215" y="1095" as="sourcePoint" />
            <mxPoint x="145" y="1160" as="targetPoint" />
          </mxGeometry>
        </mxCell>
        <mxCell id="lytTWIRT8EyPjuGnmIkk-33" value="True" style="text;html=1;align=center;verticalAlign=middle;whiteSpace=wrap;rounded=0;" vertex="1" parent="WIyWlLk6GJQsqaUBKTNV-1">
          <mxGeometry x="115" y="1080" width="60" height="30" as="geometry" />
        </mxCell>
        <mxCell id="lytTWIRT8EyPjuGnmIkk-34" value="" style="edgeStyle=orthogonalEdgeStyle;rounded=0;orthogonalLoop=1;jettySize=auto;html=1;entryX=0;entryY=0.5;entryDx=0;entryDy=0;exitX=1;exitY=0.5;exitDx=0;exitDy=0;endArrow=none;endFill=0;" edge="1" parent="WIyWlLk6GJQsqaUBKTNV-1" source="lytTWIRT8EyPjuGnmIkk-29" target="lytTWIRT8EyPjuGnmIkk-35">
          <mxGeometry relative="1" as="geometry">
            <mxPoint x="585" y="1095" as="sourcePoint" />
            <mxPoint x="655" y="1160" as="targetPoint" />
          </mxGeometry>
        </mxCell>
        <mxCell id="lytTWIRT8EyPjuGnmIkk-35" value="False" style="text;html=1;align=center;verticalAlign=middle;whiteSpace=wrap;rounded=0;" vertex="1" parent="WIyWlLk6GJQsqaUBKTNV-1">
          <mxGeometry x="625" y="1080" width="60" height="30" as="geometry" />
        </mxCell>
        <mxCell id="lytTWIRT8EyPjuGnmIkk-38" style="edgeStyle=orthogonalEdgeStyle;rounded=0;orthogonalLoop=1;jettySize=auto;html=1;exitX=0.5;exitY=1;exitDx=0;exitDy=0;entryX=0.5;entryY=0;entryDx=0;entryDy=0;" edge="1" parent="WIyWlLk6GJQsqaUBKTNV-1" source="lytTWIRT8EyPjuGnmIkk-44" target="lytTWIRT8EyPjuGnmIkk-41">
          <mxGeometry relative="1" as="geometry" />
        </mxCell>
        <mxCell id="lytTWIRT8EyPjuGnmIkk-39" style="edgeStyle=orthogonalEdgeStyle;rounded=0;orthogonalLoop=1;jettySize=auto;html=1;entryX=0.5;entryY=0;entryDx=0;entryDy=0;exitX=0.5;exitY=1;exitDx=0;exitDy=0;" edge="1" parent="WIyWlLk6GJQsqaUBKTNV-1" source="lytTWIRT8EyPjuGnmIkk-46" target="lytTWIRT8EyPjuGnmIkk-49">
          <mxGeometry relative="1" as="geometry">
            <mxPoint x="910" y="1280" as="targetPoint" />
          </mxGeometry>
        </mxCell>
        <mxCell id="lytTWIRT8EyPjuGnmIkk-40" value="&lt;div style=&quot;line-height: 22px; white-space: pre;&quot;&gt;&lt;div style=&quot;line-height: 22px;&quot;&gt;&lt;font face=&quot;Helvetica&quot;&gt;weather_status_lower == &quot;rainy&quot;&lt;/font&gt;&lt;/div&gt;&lt;/div&gt;" style="rhombus;whiteSpace=wrap;html=1;" vertex="1" parent="WIyWlLk6GJQsqaUBKTNV-1">
          <mxGeometry x="517.5" y="1160" width="275" height="110" as="geometry" />
        </mxCell>
        <mxCell id="lytTWIRT8EyPjuGnmIkk-84" style="edgeStyle=orthogonalEdgeStyle;rounded=0;orthogonalLoop=1;jettySize=auto;html=1;entryX=0.5;entryY=0;entryDx=0;entryDy=0;" edge="1" parent="WIyWlLk6GJQsqaUBKTNV-1" source="lytTWIRT8EyPjuGnmIkk-41" target="lytTWIRT8EyPjuGnmIkk-76">
          <mxGeometry relative="1" as="geometry">
            <Array as="points">
              <mxPoint x="400" y="1500" />
              <mxPoint x="220" y="1500" />
              <mxPoint x="220" y="1654" />
            </Array>
          </mxGeometry>
        </mxCell>
        <mxCell id="lytTWIRT8EyPjuGnmIkk-41" value="&lt;p&gt;Output: Ідеальна погода, щоб&lt;/p&gt;&lt;p&gt;читати книгу всередині!&lt;/p&gt;" style="shape=parallelogram;perimeter=parallelogramPerimeter;whiteSpace=wrap;html=1;fixedSize=1;" vertex="1" parent="WIyWlLk6GJQsqaUBKTNV-1">
          <mxGeometry x="265" y="1280" width="270" height="80" as="geometry" />
        </mxCell>
        <mxCell id="lytTWIRT8EyPjuGnmIkk-43" value="" style="edgeStyle=orthogonalEdgeStyle;rounded=0;orthogonalLoop=1;jettySize=auto;html=1;exitX=0;exitY=0.5;exitDx=0;exitDy=0;entryX=1;entryY=0.5;entryDx=0;entryDy=0;endArrow=none;endFill=0;" edge="1" parent="WIyWlLk6GJQsqaUBKTNV-1" source="lytTWIRT8EyPjuGnmIkk-40" target="lytTWIRT8EyPjuGnmIkk-44">
          <mxGeometry relative="1" as="geometry">
            <mxPoint x="470" y="1215" as="sourcePoint" />
            <mxPoint x="400" y="1280" as="targetPoint" />
          </mxGeometry>
        </mxCell>
        <mxCell id="lytTWIRT8EyPjuGnmIkk-44" value="True" style="text;html=1;align=center;verticalAlign=middle;whiteSpace=wrap;rounded=0;" vertex="1" parent="WIyWlLk6GJQsqaUBKTNV-1">
          <mxGeometry x="370" y="1200" width="60" height="30" as="geometry" />
        </mxCell>
        <mxCell id="lytTWIRT8EyPjuGnmIkk-45" value="" style="edgeStyle=orthogonalEdgeStyle;rounded=0;orthogonalLoop=1;jettySize=auto;html=1;entryX=0;entryY=0.5;entryDx=0;entryDy=0;exitX=1;exitY=0.5;exitDx=0;exitDy=0;endArrow=none;endFill=0;" edge="1" parent="WIyWlLk6GJQsqaUBKTNV-1" source="lytTWIRT8EyPjuGnmIkk-40" target="lytTWIRT8EyPjuGnmIkk-46">
          <mxGeometry relative="1" as="geometry">
            <mxPoint x="840" y="1215" as="sourcePoint" />
            <mxPoint x="910" y="1280" as="targetPoint" />
          </mxGeometry>
        </mxCell>
        <mxCell id="lytTWIRT8EyPjuGnmIkk-46" value="False" style="text;html=1;align=center;verticalAlign=middle;whiteSpace=wrap;rounded=0;" vertex="1" parent="WIyWlLk6GJQsqaUBKTNV-1">
          <mxGeometry x="880" y="1200" width="60" height="30" as="geometry" />
        </mxCell>
        <mxCell id="lytTWIRT8EyPjuGnmIkk-47" style="edgeStyle=orthogonalEdgeStyle;rounded=0;orthogonalLoop=1;jettySize=auto;html=1;exitX=0.5;exitY=1;exitDx=0;exitDy=0;entryX=0.5;entryY=0;entryDx=0;entryDy=0;" edge="1" parent="WIyWlLk6GJQsqaUBKTNV-1" source="lytTWIRT8EyPjuGnmIkk-53" target="lytTWIRT8EyPjuGnmIkk-50">
          <mxGeometry relative="1" as="geometry" />
        </mxCell>
        <mxCell id="lytTWIRT8EyPjuGnmIkk-48" style="edgeStyle=orthogonalEdgeStyle;rounded=0;orthogonalLoop=1;jettySize=auto;html=1;entryX=0.5;entryY=0;entryDx=0;entryDy=0;exitX=0.5;exitY=1;exitDx=0;exitDy=0;" edge="1" parent="WIyWlLk6GJQsqaUBKTNV-1" source="lytTWIRT8EyPjuGnmIkk-55">
          <mxGeometry relative="1" as="geometry">
            <mxPoint x="1165" y="1400" as="targetPoint" />
          </mxGeometry>
        </mxCell>
        <mxCell id="lytTWIRT8EyPjuGnmIkk-49" value="&lt;div style=&quot;line-height: 22px; white-space: pre;&quot;&gt;&lt;div style=&quot;line-height: 22px;&quot;&gt;&lt;font face=&quot;Helvetica&quot;&gt;weather_status_lower == &quot;cloudy&quot;&lt;/font&gt;&lt;/div&gt;&lt;/div&gt;" style="rhombus;whiteSpace=wrap;html=1;" vertex="1" parent="WIyWlLk6GJQsqaUBKTNV-1">
          <mxGeometry x="772.5" y="1280" width="275" height="110" as="geometry" />
        </mxCell>
        <mxCell id="lytTWIRT8EyPjuGnmIkk-85" style="edgeStyle=orthogonalEdgeStyle;rounded=0;orthogonalLoop=1;jettySize=auto;html=1;" edge="1" parent="WIyWlLk6GJQsqaUBKTNV-1" source="lytTWIRT8EyPjuGnmIkk-50">
          <mxGeometry relative="1" as="geometry">
            <mxPoint x="200" y="1660" as="targetPoint" />
            <Array as="points">
              <mxPoint x="655" y="1530" />
              <mxPoint x="180" y="1530" />
              <mxPoint x="180" y="1660" />
            </Array>
          </mxGeometry>
        </mxCell>
        <mxCell id="lytTWIRT8EyPjuGnmIkk-50" value="&lt;p&gt;Output: Може, відвідати музей?&lt;/p&gt;" style="shape=parallelogram;perimeter=parallelogramPerimeter;whiteSpace=wrap;html=1;fixedSize=1;" vertex="1" parent="WIyWlLk6GJQsqaUBKTNV-1">
          <mxGeometry x="520" y="1400" width="270" height="60" as="geometry" />
        </mxCell>
        <mxCell id="lytTWIRT8EyPjuGnmIkk-52" value="" style="edgeStyle=orthogonalEdgeStyle;rounded=0;orthogonalLoop=1;jettySize=auto;html=1;exitX=0;exitY=0.5;exitDx=0;exitDy=0;entryX=1;entryY=0.5;entryDx=0;entryDy=0;endArrow=none;endFill=0;" edge="1" parent="WIyWlLk6GJQsqaUBKTNV-1" source="lytTWIRT8EyPjuGnmIkk-49" target="lytTWIRT8EyPjuGnmIkk-53">
          <mxGeometry relative="1" as="geometry">
            <mxPoint x="725" y="1335" as="sourcePoint" />
            <mxPoint x="655" y="1400" as="targetPoint" />
          </mxGeometry>
        </mxCell>
        <mxCell id="lytTWIRT8EyPjuGnmIkk-53" value="True" style="text;html=1;align=center;verticalAlign=middle;whiteSpace=wrap;rounded=0;" vertex="1" parent="WIyWlLk6GJQsqaUBKTNV-1">
          <mxGeometry x="625" y="1320" width="60" height="30" as="geometry" />
        </mxCell>
        <mxCell id="lytTWIRT8EyPjuGnmIkk-54" value="" style="edgeStyle=orthogonalEdgeStyle;rounded=0;orthogonalLoop=1;jettySize=auto;html=1;entryX=0;entryY=0.5;entryDx=0;entryDy=0;exitX=1;exitY=0.5;exitDx=0;exitDy=0;endArrow=none;endFill=0;" edge="1" parent="WIyWlLk6GJQsqaUBKTNV-1" source="lytTWIRT8EyPjuGnmIkk-49" target="lytTWIRT8EyPjuGnmIkk-55">
          <mxGeometry relative="1" as="geometry">
            <mxPoint x="1095" y="1335" as="sourcePoint" />
            <mxPoint x="1165" y="1400" as="targetPoint" />
          </mxGeometry>
        </mxCell>
        <mxCell id="lytTWIRT8EyPjuGnmIkk-55" value="False" style="text;html=1;align=center;verticalAlign=middle;whiteSpace=wrap;rounded=0;" vertex="1" parent="WIyWlLk6GJQsqaUBKTNV-1">
          <mxGeometry x="1135" y="1320" width="60" height="30" as="geometry" />
        </mxCell>
        <mxCell id="lytTWIRT8EyPjuGnmIkk-56" style="edgeStyle=orthogonalEdgeStyle;rounded=0;orthogonalLoop=1;jettySize=auto;html=1;exitX=0.5;exitY=1;exitDx=0;exitDy=0;entryX=0.5;entryY=0;entryDx=0;entryDy=0;" edge="1" parent="WIyWlLk6GJQsqaUBKTNV-1" source="lytTWIRT8EyPjuGnmIkk-62" target="lytTWIRT8EyPjuGnmIkk-59">
          <mxGeometry relative="1" as="geometry" />
        </mxCell>
        <mxCell id="lytTWIRT8EyPjuGnmIkk-57" style="edgeStyle=orthogonalEdgeStyle;rounded=0;orthogonalLoop=1;jettySize=auto;html=1;entryX=0.5;entryY=0;entryDx=0;entryDy=0;exitX=0.5;exitY=1;exitDx=0;exitDy=0;" edge="1" parent="WIyWlLk6GJQsqaUBKTNV-1" source="lytTWIRT8EyPjuGnmIkk-64">
          <mxGeometry relative="1" as="geometry">
            <mxPoint x="1420" y="1520" as="targetPoint" />
          </mxGeometry>
        </mxCell>
        <mxCell id="lytTWIRT8EyPjuGnmIkk-58" value="&lt;div style=&quot;line-height: 22px; white-space: pre;&quot;&gt;&lt;div style=&quot;line-height: 22px;&quot;&gt;&lt;font face=&quot;Helvetica&quot;&gt;weather_status_lower == &quot;snowy&quot;&lt;/font&gt;&lt;/div&gt;&lt;/div&gt;" style="rhombus;whiteSpace=wrap;html=1;" vertex="1" parent="WIyWlLk6GJQsqaUBKTNV-1">
          <mxGeometry x="1027.5" y="1400" width="275" height="110" as="geometry" />
        </mxCell>
        <mxCell id="lytTWIRT8EyPjuGnmIkk-86" style="edgeStyle=orthogonalEdgeStyle;rounded=0;orthogonalLoop=1;jettySize=auto;html=1;entryX=0.5;entryY=0;entryDx=0;entryDy=0;" edge="1" parent="WIyWlLk6GJQsqaUBKTNV-1" source="lytTWIRT8EyPjuGnmIkk-59" target="lytTWIRT8EyPjuGnmIkk-76">
          <mxGeometry relative="1" as="geometry">
            <Array as="points">
              <mxPoint x="210" y="1550" />
              <mxPoint x="210" y="1654" />
            </Array>
          </mxGeometry>
        </mxCell>
        <mxCell id="lytTWIRT8EyPjuGnmIkk-59" value="&lt;p&gt;Output: Як щодо того, щоб зліпити сніговика?&lt;/p&gt;" style="shape=parallelogram;perimeter=parallelogramPerimeter;whiteSpace=wrap;html=1;fixedSize=1;" vertex="1" parent="WIyWlLk6GJQsqaUBKTNV-1">
          <mxGeometry x="742.5" y="1520" width="335" height="60" as="geometry" />
        </mxCell>
        <mxCell id="lytTWIRT8EyPjuGnmIkk-61" value="" style="edgeStyle=orthogonalEdgeStyle;rounded=0;orthogonalLoop=1;jettySize=auto;html=1;exitX=0;exitY=0.5;exitDx=0;exitDy=0;entryX=1;entryY=0.5;entryDx=0;entryDy=0;endArrow=none;endFill=0;" edge="1" parent="WIyWlLk6GJQsqaUBKTNV-1" source="lytTWIRT8EyPjuGnmIkk-58" target="lytTWIRT8EyPjuGnmIkk-62">
          <mxGeometry relative="1" as="geometry">
            <mxPoint x="980" y="1455" as="sourcePoint" />
            <mxPoint x="910" y="1520" as="targetPoint" />
          </mxGeometry>
        </mxCell>
        <mxCell id="lytTWIRT8EyPjuGnmIkk-62" value="True" style="text;html=1;align=center;verticalAlign=middle;whiteSpace=wrap;rounded=0;" vertex="1" parent="WIyWlLk6GJQsqaUBKTNV-1">
          <mxGeometry x="880" y="1440" width="60" height="30" as="geometry" />
        </mxCell>
        <mxCell id="lytTWIRT8EyPjuGnmIkk-63" value="" style="edgeStyle=orthogonalEdgeStyle;rounded=0;orthogonalLoop=1;jettySize=auto;html=1;entryX=0;entryY=0.5;entryDx=0;entryDy=0;exitX=1;exitY=0.5;exitDx=0;exitDy=0;endArrow=none;endFill=0;" edge="1" parent="WIyWlLk6GJQsqaUBKTNV-1" source="lytTWIRT8EyPjuGnmIkk-58" target="lytTWIRT8EyPjuGnmIkk-64">
          <mxGeometry relative="1" as="geometry">
            <mxPoint x="1350" y="1455" as="sourcePoint" />
            <mxPoint x="1420" y="1520" as="targetPoint" />
          </mxGeometry>
        </mxCell>
        <mxCell id="lytTWIRT8EyPjuGnmIkk-64" value="False" style="text;html=1;align=center;verticalAlign=middle;whiteSpace=wrap;rounded=0;" vertex="1" parent="WIyWlLk6GJQsqaUBKTNV-1">
          <mxGeometry x="1390" y="1440" width="60" height="30" as="geometry" />
        </mxCell>
        <mxCell id="lytTWIRT8EyPjuGnmIkk-65" style="edgeStyle=orthogonalEdgeStyle;rounded=0;orthogonalLoop=1;jettySize=auto;html=1;exitX=0.5;exitY=1;exitDx=0;exitDy=0;entryX=0.5;entryY=0;entryDx=0;entryDy=0;" edge="1" parent="WIyWlLk6GJQsqaUBKTNV-1" source="lytTWIRT8EyPjuGnmIkk-71" target="lytTWIRT8EyPjuGnmIkk-68">
          <mxGeometry relative="1" as="geometry" />
        </mxCell>
        <mxCell id="lytTWIRT8EyPjuGnmIkk-67" value="&lt;div style=&quot;line-height: 22px; white-space: pre;&quot;&gt;&lt;div style=&quot;line-height: 22px;&quot;&gt;&lt;font face=&quot;Helvetica&quot;&gt;weather_status_lower == &quot;windy&quot;&lt;/font&gt;&lt;/div&gt;&lt;/div&gt;" style="rhombus;whiteSpace=wrap;html=1;" vertex="1" parent="WIyWlLk6GJQsqaUBKTNV-1">
          <mxGeometry x="1282.5" y="1520" width="275" height="110" as="geometry" />
        </mxCell>
        <mxCell id="lytTWIRT8EyPjuGnmIkk-87" style="edgeStyle=orthogonalEdgeStyle;rounded=0;orthogonalLoop=1;jettySize=auto;html=1;entryX=0.5;entryY=0;entryDx=0;entryDy=0;" edge="1" parent="WIyWlLk6GJQsqaUBKTNV-1" source="lytTWIRT8EyPjuGnmIkk-68" target="lytTWIRT8EyPjuGnmIkk-76">
          <mxGeometry relative="1" as="geometry">
            <Array as="points">
              <mxPoint x="625" y="1670" />
              <mxPoint x="625" y="1600" />
              <mxPoint x="190" y="1600" />
              <mxPoint x="190" y="1654" />
            </Array>
          </mxGeometry>
        </mxCell>
        <mxCell id="lytTWIRT8EyPjuGnmIkk-68" value="&lt;p style=&quot;&quot;&gt;Output:&amp;nbsp;&lt;span style=&quot;font-family: Consolas, &amp;quot;Courier New&amp;quot;, monospace; white-space: pre;&quot;&gt;Запустіть повітряного змія, якщо він у вас є!&lt;/span&gt;&lt;/p&gt;" style="shape=parallelogram;perimeter=parallelogramPerimeter;whiteSpace=wrap;html=1;fixedSize=1;" vertex="1" parent="WIyWlLk6GJQsqaUBKTNV-1">
          <mxGeometry x="970" y="1640" width="390" height="60" as="geometry" />
        </mxCell>
        <mxCell id="lytTWIRT8EyPjuGnmIkk-70" value="" style="edgeStyle=orthogonalEdgeStyle;rounded=0;orthogonalLoop=1;jettySize=auto;html=1;exitX=0;exitY=0.5;exitDx=0;exitDy=0;entryX=1;entryY=0.5;entryDx=0;entryDy=0;endArrow=none;endFill=0;" edge="1" parent="WIyWlLk6GJQsqaUBKTNV-1" source="lytTWIRT8EyPjuGnmIkk-67" target="lytTWIRT8EyPjuGnmIkk-71">
          <mxGeometry relative="1" as="geometry">
            <mxPoint x="1235" y="1575" as="sourcePoint" />
            <mxPoint x="1165" y="1640" as="targetPoint" />
          </mxGeometry>
        </mxCell>
        <mxCell id="lytTWIRT8EyPjuGnmIkk-71" value="True" style="text;html=1;align=center;verticalAlign=middle;whiteSpace=wrap;rounded=0;" vertex="1" parent="WIyWlLk6GJQsqaUBKTNV-1">
          <mxGeometry x="1135" y="1560" width="60" height="30" as="geometry" />
        </mxCell>
        <mxCell id="lytTWIRT8EyPjuGnmIkk-74" style="edgeStyle=orthogonalEdgeStyle;rounded=0;orthogonalLoop=1;jettySize=auto;html=1;exitX=1;exitY=0.5;exitDx=0;exitDy=0;entryX=0.5;entryY=0;entryDx=0;entryDy=0;" edge="1" parent="WIyWlLk6GJQsqaUBKTNV-1" source="lytTWIRT8EyPjuGnmIkk-80" target="lytTWIRT8EyPjuGnmIkk-88">
          <mxGeometry relative="1" as="geometry">
            <mxPoint x="405" y="1734" as="targetPoint" />
          </mxGeometry>
        </mxCell>
        <mxCell id="lytTWIRT8EyPjuGnmIkk-75" style="edgeStyle=orthogonalEdgeStyle;rounded=0;orthogonalLoop=1;jettySize=auto;html=1;entryX=0.5;entryY=0;entryDx=0;entryDy=0;" edge="1" parent="WIyWlLk6GJQsqaUBKTNV-1" source="lytTWIRT8EyPjuGnmIkk-82" target="lytTWIRT8EyPjuGnmIkk-100">
          <mxGeometry relative="1" as="geometry">
            <mxPoint x="200" y="1940" as="targetPoint" />
          </mxGeometry>
        </mxCell>
        <mxCell id="lytTWIRT8EyPjuGnmIkk-76" value="&lt;div style=&quot;line-height: 22px; white-space: pre;&quot;&gt;&lt;div style=&quot;line-height: 22px;&quot;&gt;&lt;font face=&quot;Helvetica&quot;&gt;idx = 0; idx &amp;lt; 3; idx++&lt;/font&gt;&lt;/div&gt;&lt;/div&gt;" style="shape=hexagon;perimeter=hexagonPerimeter2;whiteSpace=wrap;html=1;fixedSize=1;" vertex="1" parent="WIyWlLk6GJQsqaUBKTNV-1">
          <mxGeometry x="120" y="1654" width="160" height="80" as="geometry" />
        </mxCell>
        <mxCell id="lytTWIRT8EyPjuGnmIkk-77" style="edgeStyle=orthogonalEdgeStyle;rounded=0;orthogonalLoop=1;jettySize=auto;html=1;entryX=0.625;entryY=1;entryDx=0;entryDy=0;" edge="1" parent="WIyWlLk6GJQsqaUBKTNV-1" target="lytTWIRT8EyPjuGnmIkk-76">
          <mxGeometry relative="1" as="geometry">
            <Array as="points" />
            <mxPoint x="281" y="1880" as="sourcePoint" />
            <mxPoint x="270" y="1850" as="targetPoint" />
          </mxGeometry>
        </mxCell>
        <mxCell id="lytTWIRT8EyPjuGnmIkk-79" value="" style="edgeStyle=orthogonalEdgeStyle;rounded=0;orthogonalLoop=1;jettySize=auto;html=1;exitX=1;exitY=0.5;exitDx=0;exitDy=0;entryX=0;entryY=0.5;entryDx=0;entryDy=0;endArrow=none;endFill=0;" edge="1" parent="WIyWlLk6GJQsqaUBKTNV-1" source="lytTWIRT8EyPjuGnmIkk-76" target="lytTWIRT8EyPjuGnmIkk-80">
          <mxGeometry relative="1" as="geometry">
            <mxPoint x="280" y="1694" as="sourcePoint" />
            <mxPoint x="405" y="1734" as="targetPoint" />
          </mxGeometry>
        </mxCell>
        <mxCell id="lytTWIRT8EyPjuGnmIkk-80" value="Next" style="text;html=1;align=center;verticalAlign=middle;whiteSpace=wrap;rounded=0;" vertex="1" parent="WIyWlLk6GJQsqaUBKTNV-1">
          <mxGeometry x="310" y="1679" width="60" height="30" as="geometry" />
        </mxCell>
        <mxCell id="lytTWIRT8EyPjuGnmIkk-81" value="" style="edgeStyle=orthogonalEdgeStyle;rounded=0;orthogonalLoop=1;jettySize=auto;html=1;entryX=0.5;entryY=0;entryDx=0;entryDy=0;endArrow=none;endFill=0;" edge="1" parent="WIyWlLk6GJQsqaUBKTNV-1" source="lytTWIRT8EyPjuGnmIkk-76" target="lytTWIRT8EyPjuGnmIkk-82">
          <mxGeometry relative="1" as="geometry">
            <mxPoint x="200" y="1734" as="sourcePoint" />
            <mxPoint x="200" y="1854" as="targetPoint" />
          </mxGeometry>
        </mxCell>
        <mxCell id="lytTWIRT8EyPjuGnmIkk-82" value="Done" style="text;html=1;align=center;verticalAlign=middle;whiteSpace=wrap;rounded=0;" vertex="1" parent="WIyWlLk6GJQsqaUBKTNV-1">
          <mxGeometry x="140" y="1811" width="60" height="30" as="geometry" />
        </mxCell>
        <mxCell id="lytTWIRT8EyPjuGnmIkk-91" style="edgeStyle=orthogonalEdgeStyle;rounded=0;orthogonalLoop=1;jettySize=auto;html=1;exitX=0.5;exitY=1;exitDx=0;exitDy=0;entryX=0.5;entryY=0;entryDx=0;entryDy=0;endArrow=none;endFill=0;" edge="1" parent="WIyWlLk6GJQsqaUBKTNV-1" source="lytTWIRT8EyPjuGnmIkk-88" target="lytTWIRT8EyPjuGnmIkk-90">
          <mxGeometry relative="1" as="geometry" />
        </mxCell>
        <mxCell id="lytTWIRT8EyPjuGnmIkk-88" value="&lt;div style=&quot;line-height: 22px; white-space: pre; font-size: 10px;&quot;&gt;&lt;font face=&quot;Helvetica&quot;&gt;&amp;nbsp; &amp;nbsp; &amp;nbsp; &amp;nbsp; if (weather_options[idx] == weather_status_lower) {&lt;/font&gt;&lt;/div&gt;" style="rhombus;whiteSpace=wrap;html=1;" vertex="1" parent="WIyWlLk6GJQsqaUBKTNV-1">
          <mxGeometry x="247.5" y="1720" width="305" height="91" as="geometry" />
        </mxCell>
        <mxCell id="lytTWIRT8EyPjuGnmIkk-93" style="edgeStyle=orthogonalEdgeStyle;rounded=0;orthogonalLoop=1;jettySize=auto;html=1;entryX=1;entryY=0.5;entryDx=0;entryDy=0;exitX=0.5;exitY=1;exitDx=0;exitDy=0;" edge="1" parent="WIyWlLk6GJQsqaUBKTNV-1" source="lytTWIRT8EyPjuGnmIkk-90" target="lytTWIRT8EyPjuGnmIkk-92">
          <mxGeometry relative="1" as="geometry" />
        </mxCell>
        <mxCell id="lytTWIRT8EyPjuGnmIkk-90" value="True" style="text;html=1;align=center;verticalAlign=middle;whiteSpace=wrap;rounded=0;" vertex="1" parent="WIyWlLk6GJQsqaUBKTNV-1">
          <mxGeometry x="370" y="1830" width="60" height="30" as="geometry" />
        </mxCell>
        <mxCell id="lytTWIRT8EyPjuGnmIkk-92" value="n = idx" style="rounded=1;whiteSpace=wrap;html=1;" vertex="1" parent="WIyWlLk6GJQsqaUBKTNV-1">
          <mxGeometry x="280" y="1860" width="70" height="50" as="geometry" />
        </mxCell>
        <mxCell id="lytTWIRT8EyPjuGnmIkk-116" style="edgeStyle=orthogonalEdgeStyle;rounded=0;orthogonalLoop=1;jettySize=auto;html=1;endArrow=none;endFill=0;" edge="1" parent="WIyWlLk6GJQsqaUBKTNV-1" source="lytTWIRT8EyPjuGnmIkk-97">
          <mxGeometry relative="1" as="geometry">
            <mxPoint x="640" y="2360" as="targetPoint" />
            <Array as="points">
              <mxPoint x="640" y="2090" />
              <mxPoint x="640" y="2280" />
            </Array>
          </mxGeometry>
        </mxCell>
        <mxCell id="lytTWIRT8EyPjuGnmIkk-97" value="Output: Взуй улюблені кросівки" style="shape=parallelogram;perimeter=parallelogramPerimeter;whiteSpace=wrap;html=1;fixedSize=1;" vertex="1" parent="WIyWlLk6GJQsqaUBKTNV-1">
          <mxGeometry x="370" y="2050" width="240" height="80" as="geometry" />
        </mxCell>
        <mxCell id="lytTWIRT8EyPjuGnmIkk-98" value="Кінець" style="ellipse;whiteSpace=wrap;html=1;" vertex="1" parent="WIyWlLk6GJQsqaUBKTNV-1">
          <mxGeometry x="135" y="2540" width="120" height="80" as="geometry" />
        </mxCell>
        <mxCell id="lytTWIRT8EyPjuGnmIkk-99" value="" style="edgeStyle=orthogonalEdgeStyle;rounded=0;orthogonalLoop=1;jettySize=auto;html=1;" edge="1" parent="WIyWlLk6GJQsqaUBKTNV-1" source="lytTWIRT8EyPjuGnmIkk-100" target="lytTWIRT8EyPjuGnmIkk-103">
          <mxGeometry relative="1" as="geometry" />
        </mxCell>
        <mxCell id="lytTWIRT8EyPjuGnmIkk-100" value="switch (n)" style="rounded=0;whiteSpace=wrap;html=1;" vertex="1" parent="WIyWlLk6GJQsqaUBKTNV-1">
          <mxGeometry x="135" y="1950" width="120" height="60" as="geometry" />
        </mxCell>
        <mxCell id="lytTWIRT8EyPjuGnmIkk-101" value="" style="edgeStyle=orthogonalEdgeStyle;rounded=0;orthogonalLoop=1;jettySize=auto;html=1;entryX=0;entryY=0.5;entryDx=0;entryDy=0;" edge="1" parent="WIyWlLk6GJQsqaUBKTNV-1" source="lytTWIRT8EyPjuGnmIkk-105" target="lytTWIRT8EyPjuGnmIkk-97">
          <mxGeometry relative="1" as="geometry">
            <mxPoint x="355" y="2090" as="targetPoint" />
          </mxGeometry>
        </mxCell>
        <mxCell id="lytTWIRT8EyPjuGnmIkk-102" style="edgeStyle=orthogonalEdgeStyle;rounded=0;orthogonalLoop=1;jettySize=auto;html=1;entryX=0.5;entryY=0;entryDx=0;entryDy=0;" edge="1" parent="WIyWlLk6GJQsqaUBKTNV-1" source="lytTWIRT8EyPjuGnmIkk-115" target="lytTWIRT8EyPjuGnmIkk-111">
          <mxGeometry relative="1" as="geometry" />
        </mxCell>
        <mxCell id="lytTWIRT8EyPjuGnmIkk-103" value="Case 0" style="rhombus;whiteSpace=wrap;html=1;" vertex="1" parent="WIyWlLk6GJQsqaUBKTNV-1">
          <mxGeometry x="130" y="2050" width="130" height="80" as="geometry" />
        </mxCell>
        <mxCell id="lytTWIRT8EyPjuGnmIkk-104" value="" style="edgeStyle=orthogonalEdgeStyle;rounded=0;orthogonalLoop=1;jettySize=auto;html=1;endArrow=none;endFill=0;" edge="1" parent="WIyWlLk6GJQsqaUBKTNV-1" source="lytTWIRT8EyPjuGnmIkk-103" target="lytTWIRT8EyPjuGnmIkk-105">
          <mxGeometry relative="1" as="geometry">
            <mxPoint x="260" y="2090" as="sourcePoint" />
            <mxPoint x="355" y="2090" as="targetPoint" />
          </mxGeometry>
        </mxCell>
        <mxCell id="lytTWIRT8EyPjuGnmIkk-105" value="True" style="text;html=1;align=center;verticalAlign=middle;whiteSpace=wrap;rounded=0;" vertex="1" parent="WIyWlLk6GJQsqaUBKTNV-1">
          <mxGeometry x="275" y="2075" width="60" height="30" as="geometry" />
        </mxCell>
        <mxCell id="lytTWIRT8EyPjuGnmIkk-108" style="edgeStyle=orthogonalEdgeStyle;rounded=0;orthogonalLoop=1;jettySize=auto;html=1;exitX=1;exitY=0.5;exitDx=0;exitDy=0;endArrow=none;endFill=0;entryX=1;entryY=0.5;entryDx=0;entryDy=0;" edge="1" parent="WIyWlLk6GJQsqaUBKTNV-1" source="lytTWIRT8EyPjuGnmIkk-109" target="lytTWIRT8EyPjuGnmIkk-98">
          <mxGeometry relative="1" as="geometry">
            <mxPoint x="720" y="2550" as="targetPoint" />
            <Array as="points">
              <mxPoint x="640" y="2255" />
              <mxPoint x="640" y="2580" />
            </Array>
          </mxGeometry>
        </mxCell>
        <mxCell id="lytTWIRT8EyPjuGnmIkk-109" value="Output: Дощові чоботи -&lt;div&gt;гарна ідея&lt;/div&gt;" style="shape=parallelogram;perimeter=parallelogramPerimeter;whiteSpace=wrap;html=1;fixedSize=1;" vertex="1" parent="WIyWlLk6GJQsqaUBKTNV-1">
          <mxGeometry x="370" y="2215" width="200" height="80" as="geometry" />
        </mxCell>
        <mxCell id="lytTWIRT8EyPjuGnmIkk-110" value="" style="edgeStyle=orthogonalEdgeStyle;rounded=0;orthogonalLoop=1;jettySize=auto;html=1;entryX=0;entryY=0.5;entryDx=0;entryDy=0;" edge="1" parent="WIyWlLk6GJQsqaUBKTNV-1" source="lytTWIRT8EyPjuGnmIkk-113" target="lytTWIRT8EyPjuGnmIkk-109">
          <mxGeometry relative="1" as="geometry">
            <mxPoint x="354.9999999999998" y="2255" as="targetPoint" />
          </mxGeometry>
        </mxCell>
        <mxCell id="lytTWIRT8EyPjuGnmIkk-111" value="Case 1" style="rhombus;whiteSpace=wrap;html=1;" vertex="1" parent="WIyWlLk6GJQsqaUBKTNV-1">
          <mxGeometry x="130" y="2215" width="130" height="80" as="geometry" />
        </mxCell>
        <mxCell id="lytTWIRT8EyPjuGnmIkk-112" value="" style="edgeStyle=orthogonalEdgeStyle;rounded=0;orthogonalLoop=1;jettySize=auto;html=1;" edge="1" parent="WIyWlLk6GJQsqaUBKTNV-1" source="lytTWIRT8EyPjuGnmIkk-111" target="lytTWIRT8EyPjuGnmIkk-113">
          <mxGeometry relative="1" as="geometry">
            <mxPoint x="260" y="2255" as="sourcePoint" />
            <mxPoint x="355" y="2255" as="targetPoint" />
          </mxGeometry>
        </mxCell>
        <mxCell id="lytTWIRT8EyPjuGnmIkk-113" value="True" style="text;html=1;align=center;verticalAlign=middle;whiteSpace=wrap;rounded=0;" vertex="1" parent="WIyWlLk6GJQsqaUBKTNV-1">
          <mxGeometry x="275" y="2240" width="60" height="30" as="geometry" />
        </mxCell>
        <mxCell id="lytTWIRT8EyPjuGnmIkk-114" value="" style="edgeStyle=orthogonalEdgeStyle;rounded=0;orthogonalLoop=1;jettySize=auto;html=1;entryX=0.5;entryY=0;entryDx=0;entryDy=0;endArrow=none;endFill=0;" edge="1" parent="WIyWlLk6GJQsqaUBKTNV-1" source="lytTWIRT8EyPjuGnmIkk-103" target="lytTWIRT8EyPjuGnmIkk-115">
          <mxGeometry relative="1" as="geometry">
            <mxPoint x="195" y="2130" as="sourcePoint" />
            <mxPoint x="195" y="2330" as="targetPoint" />
          </mxGeometry>
        </mxCell>
        <mxCell id="lytTWIRT8EyPjuGnmIkk-115" value="False" style="text;html=1;align=center;verticalAlign=middle;whiteSpace=wrap;rounded=0;" vertex="1" parent="WIyWlLk6GJQsqaUBKTNV-1">
          <mxGeometry x="165" y="2150" width="60" height="30" as="geometry" />
        </mxCell>
        <mxCell id="lytTWIRT8EyPjuGnmIkk-117" style="edgeStyle=orthogonalEdgeStyle;rounded=0;orthogonalLoop=1;jettySize=auto;html=1;entryX=0.5;entryY=0;entryDx=0;entryDy=0;" edge="1" parent="WIyWlLk6GJQsqaUBKTNV-1" source="lytTWIRT8EyPjuGnmIkk-124" target="lytTWIRT8EyPjuGnmIkk-120">
          <mxGeometry relative="1" as="geometry" />
        </mxCell>
        <mxCell id="lytTWIRT8EyPjuGnmIkk-125" style="edgeStyle=orthogonalEdgeStyle;rounded=0;orthogonalLoop=1;jettySize=auto;html=1;endArrow=none;endFill=0;" edge="1" parent="WIyWlLk6GJQsqaUBKTNV-1" source="lytTWIRT8EyPjuGnmIkk-118">
          <mxGeometry relative="1" as="geometry">
            <mxPoint x="640" y="2420" as="targetPoint" />
          </mxGeometry>
        </mxCell>
        <mxCell id="lytTWIRT8EyPjuGnmIkk-118" value="Output: Сьогодні підходить&lt;div&gt;будь-яке взуття!&lt;/div&gt;" style="shape=parallelogram;perimeter=parallelogramPerimeter;whiteSpace=wrap;html=1;fixedSize=1;" vertex="1" parent="WIyWlLk6GJQsqaUBKTNV-1">
          <mxGeometry x="370" y="2380" width="200" height="80" as="geometry" />
        </mxCell>
        <mxCell id="lytTWIRT8EyPjuGnmIkk-119" value="" style="edgeStyle=orthogonalEdgeStyle;rounded=0;orthogonalLoop=1;jettySize=auto;html=1;entryX=0;entryY=0.5;entryDx=0;entryDy=0;" edge="1" parent="WIyWlLk6GJQsqaUBKTNV-1" source="lytTWIRT8EyPjuGnmIkk-122" target="lytTWIRT8EyPjuGnmIkk-118">
          <mxGeometry relative="1" as="geometry">
            <mxPoint x="354.9999999999998" y="2420" as="targetPoint" />
          </mxGeometry>
        </mxCell>
        <mxCell id="lytTWIRT8EyPjuGnmIkk-120" value="Case 2" style="rhombus;whiteSpace=wrap;html=1;" vertex="1" parent="WIyWlLk6GJQsqaUBKTNV-1">
          <mxGeometry x="130" y="2380" width="130" height="80" as="geometry" />
        </mxCell>
        <mxCell id="lytTWIRT8EyPjuGnmIkk-121" value="" style="edgeStyle=orthogonalEdgeStyle;rounded=0;orthogonalLoop=1;jettySize=auto;html=1;" edge="1" parent="WIyWlLk6GJQsqaUBKTNV-1" source="lytTWIRT8EyPjuGnmIkk-120" target="lytTWIRT8EyPjuGnmIkk-122">
          <mxGeometry relative="1" as="geometry">
            <mxPoint x="260" y="2420" as="sourcePoint" />
            <mxPoint x="355" y="2420" as="targetPoint" />
          </mxGeometry>
        </mxCell>
        <mxCell id="lytTWIRT8EyPjuGnmIkk-122" value="True" style="text;html=1;align=center;verticalAlign=middle;whiteSpace=wrap;rounded=0;" vertex="1" parent="WIyWlLk6GJQsqaUBKTNV-1">
          <mxGeometry x="275" y="2405" width="60" height="30" as="geometry" />
        </mxCell>
        <mxCell id="lytTWIRT8EyPjuGnmIkk-123" value="" style="edgeStyle=orthogonalEdgeStyle;rounded=0;orthogonalLoop=1;jettySize=auto;html=1;entryX=0.5;entryY=0;entryDx=0;entryDy=0;endArrow=none;endFill=0;" edge="1" parent="WIyWlLk6GJQsqaUBKTNV-1" target="lytTWIRT8EyPjuGnmIkk-124">
          <mxGeometry relative="1" as="geometry">
            <mxPoint x="195" y="2295" as="sourcePoint" />
            <mxPoint x="195" y="2495" as="targetPoint" />
          </mxGeometry>
        </mxCell>
        <mxCell id="lytTWIRT8EyPjuGnmIkk-124" value="False" style="text;html=1;align=center;verticalAlign=middle;whiteSpace=wrap;rounded=0;" vertex="1" parent="WIyWlLk6GJQsqaUBKTNV-1">
          <mxGeometry x="165" y="2315" width="60" height="30" as="geometry" />
        </mxCell>
      </root>
    </mxGraphModel>
  </diagram>
</mxfile>
